<?xml version="1.0" encoding="UTF-8"?>
<svg id="Layer_2" data-name="Layer 2" xmlns="http://www.w3.org/2000/svg" viewBox="0 0 111.53 115.03">
  <defs>
    <style>
      .cls-1 {
        fill: none;
        stroke: #1fcbff;
        stroke-miterlimit: 10;
        stroke-width: 4px;
      }
    </style>
  </defs>
  <g id="Icons">
    <g>
      <path class="cls-1" d="M10.99,39.24c-9.41,2.8-16.02,37.98,4.45,30.64,15.04-5.4,10.84-35.19-4.45-30.64Z"/>
      <path class="cls-1" d="M90.52,72.94c-8.01-5.67-2.99-41.11,14.03-27.6,12.52,9.93-1.01,36.81-14.03,27.6Z"/>
      <path class="cls-1" d="M33.3,4.46c-10.99,9.03-11.32,46.4,8.86,35,24.06-13.59,5.4-46.72-8.86-35Z"/>
      <path class="cls-1" d="M85.23,38.54c8.4-11.49-.6-47.76-17.3-31.69-19.92,19.16,6.41,46.59,17.3,31.69Z"/>
      <path class="cls-1" d="M78.33,74.84c0-4.91-4.29-31.23-21.47-31.23-23.39,0-23.93,20.52-26.38,27.27s-24.25,18.18-15.66,33.82c10.58,19.28,26.49-.97,38.14-.97s27.79,18.42,38.25,2.45c11.66-17.79-12.88-26.44-12.88-31.35ZM53.63,88.44c-17.69-8.8-13.89-25.89,0-17.43,13.31-9.51,17.98,7.39,0,17.43Z"/>
    </g>
  </g>
</svg>