<svg width="40" height="40" viewBox="0 0 40 40" fill="none" xmlns="http://www.w3.org/2000/svg">
<path d="M30.0003 6.66675C27.1503 6.66675 25.417 7.21675 24.417 7.68341C23.1337 7.05008 21.667 6.66675 20.0003 6.66675C18.3337 6.66675 16.867 7.05008 15.5837 7.68341C14.5837 7.21675 12.8503 6.66675 10.0003 6.66675C5.00033 6.66675 1.66699 20.0001 1.66699 23.3334C1.66699 24.7167 3.86699 25.9834 6.90032 26.5001C7.96699 30.2334 13.0003 33.0834 19.167 33.3334V26.2001C18.1837 25.5834 16.667 24.4667 16.667 23.3334C16.667 21.6667 20.0003 21.6667 20.0003 21.6667C20.0003 21.6667 23.3337 21.6667 23.3337 23.3334C23.3337 24.4667 21.817 25.5834 20.8337 26.2001V33.3334C27.0003 33.0834 32.0337 30.2334 33.1003 26.5001C36.1337 25.9834 38.3337 24.7167 38.3337 23.3334C38.3337 20.0001 35.0003 6.66675 30.0003 6.66675ZM6.91699 23.1167C6.08366 22.9167 5.43366 22.6834 5.00033 22.5001C5.41699 17.8834 8.66699 10.6667 10.0837 10.0001C10.9837 10.0001 11.667 10.1001 12.2837 10.1834C8.78366 14.0334 7.40033 20.0667 6.91699 23.1167ZM15.0003 20.0001C14.5583 20.0001 14.1344 19.8245 13.8218 19.5119C13.5093 19.1994 13.3337 18.7754 13.3337 18.3334C13.3337 17.4334 14.0837 16.6667 15.0003 16.6667C15.4424 16.6667 15.8663 16.8423 16.1788 17.1549C16.4914 17.4675 16.667 17.8914 16.667 18.3334C16.667 19.2667 15.917 20.0001 15.0003 20.0001ZM25.0003 20.0001C24.5583 20.0001 24.1344 19.8245 23.8218 19.5119C23.5093 19.1994 23.3337 18.7754 23.3337 18.3334C23.3337 17.4334 24.0837 16.6667 25.0003 16.6667C25.4424 16.6667 25.8663 16.8423 26.1788 17.1549C26.4914 17.4675 26.667 17.8914 26.667 18.3334C26.667 19.2667 25.917 20.0001 25.0003 20.0001ZM33.0837 23.1167C32.6003 20.0667 31.217 14.0334 27.717 10.1834C28.3337 10.1001 29.017 10.0001 29.917 10.0001C31.3337 10.6667 34.5837 17.8834 35.0003 22.5001C34.5837 22.6834 33.9337 22.9167 33.0837 23.1167Z" fill="black"/>
</svg>
