<svg width="40" height="40" viewBox="0 0 40 40" fill="none" xmlns="http://www.w3.org/2000/svg">
<path d="M20 2.15015L1.95312 16.5861V19.7892L20 5.35015L38.0469 19.7892V16.5861L20 2.15015ZM20 7.15015L5.70312 18.5861V38.047H13.0469C13.0547 35.5236 13.1094 31.8361 13.8438 28.5939C14.25 26.8205 14.8516 25.1642 15.8281 23.9064C16.8125 22.6408 18.2266 21.797 20 21.797C21.7734 21.797 23.1875 22.6408 24.1719 23.9064C25.1484 25.1642 25.75 26.8205 26.1562 28.5939C26.8906 31.8361 26.9453 35.5236 26.9531 38.047H34.2969V18.5861L20 7.15015ZM12.8047 15.4845C13.1162 15.4924 13.4412 15.5515 13.75 15.6564C14.0944 15.7717 14.4064 15.9397 14.6507 16.1412C14.895 16.3428 15.062 16.5699 15.1328 16.797H24.8672C24.938 16.5699 25.105 16.3428 25.3493 16.1412C25.5936 15.9397 25.9056 15.7717 26.25 15.6564C26.5588 15.5515 26.8838 15.4924 27.1953 15.4845C27.5297 15.4783 27.8354 15.5316 28.0802 15.6389C28.3249 15.7462 28.4997 15.9034 28.5859 16.0939C28.6981 16.3383 28.6581 16.6246 28.4729 16.9038C28.2877 17.1831 27.9687 17.438 27.5703 17.6251C27.9152 17.8171 28.1823 18.0601 28.3327 18.3186C28.483 18.5772 28.5088 18.8378 28.4062 19.0626C28.3436 19.202 28.2333 19.3242 28.0819 19.422C27.9304 19.5199 27.7407 19.5916 27.5237 19.6329C27.3066 19.6743 27.0665 19.6846 26.8171 19.6631C26.5677 19.6417 26.3139 19.5889 26.0703 19.508C25.6836 19.378 25.3391 19.1822 25.0854 18.9481C24.8318 18.7141 24.6816 18.4535 24.6562 18.2033H15.3438C15.3184 18.4535 15.1683 18.7141 14.9146 18.9481C14.6609 19.1822 14.3164 19.378 13.9297 19.508C13.6861 19.5889 13.4323 19.6417 13.1829 19.6631C12.9335 19.6846 12.6934 19.6743 12.4763 19.6329C12.2593 19.5916 12.0696 19.5199 11.9181 19.422C11.7667 19.3242 11.6564 19.202 11.5938 19.0626C11.4912 18.8378 11.517 18.5772 11.6673 18.3186C11.8177 18.0601 12.0848 17.8171 12.4297 17.6251C12.0313 17.438 11.7123 17.1831 11.5271 16.9038C11.3419 16.6246 11.3019 16.3383 11.4141 16.0939C11.5003 15.9034 11.6751 15.7462 11.9198 15.6389C12.1646 15.5316 12.4703 15.4783 12.8047 15.4845Z" fill="black"/>
</svg>
