<svg width="40" height="40" viewBox="0 0 40 40" fill="none" xmlns="http://www.w3.org/2000/svg">
<path d="M23.333 24.9999C23.8052 24.9999 24.2152 24.8266 24.563 24.4799C24.9108 24.1333 25.0841 23.7233 25.083 23.2499C25.083 22.7777 24.9097 22.3683 24.563 22.0216C24.2163 21.6749 23.8063 21.501 23.333 21.4999C22.8608 21.4999 22.4513 21.6738 22.1047 22.0216C21.758 22.3694 21.5841 22.7788 21.583 23.2499C21.583 23.7221 21.7569 24.1321 22.1047 24.4799C22.4525 24.8277 22.8619 25.001 23.333 24.9999ZM22.083 19.6666H24.583C24.583 18.861 24.6663 18.271 24.833 17.8966C24.9997 17.5221 25.3886 17.0288 25.9997 16.4166C26.833 15.5833 27.3886 14.9099 27.6663 14.3966C27.9441 13.8833 28.083 13.2788 28.083 12.5833C28.083 11.3333 27.6452 10.3127 26.7697 9.52158C25.8941 8.73047 24.7486 8.33436 23.333 8.33325C22.1941 8.33325 21.2013 8.6527 20.3547 9.29158C19.508 9.93047 18.9175 10.7777 18.583 11.8333L20.833 12.7499C21.083 12.0555 21.4236 11.5349 21.8547 11.1883C22.2858 10.8416 22.7786 10.6677 23.333 10.6666C23.9997 10.6666 24.5413 10.8544 24.958 11.2299C25.3747 11.6055 25.583 12.1121 25.583 12.7499C25.583 13.1388 25.4719 13.5071 25.2497 13.8549C25.0275 14.2027 24.6386 14.6399 24.083 15.1666C23.1663 15.9721 22.6041 16.6044 22.3963 17.0633C22.1886 17.5221 22.0841 18.3899 22.083 19.6666ZM13.333 29.9999C12.4163 29.9999 11.6319 29.6738 10.9797 29.0216C10.3275 28.3694 10.0008 27.5844 9.99967 26.6666V6.66659C9.99967 5.74992 10.3263 4.96547 10.9797 4.31325C11.633 3.66103 12.4175 3.33436 13.333 3.33325H33.333C34.2497 3.33325 35.0347 3.65992 35.688 4.31325C36.3413 4.96659 36.6674 5.75103 36.6663 6.66659V26.6666C36.6663 27.5833 36.3402 28.3683 35.688 29.0216C35.0358 29.6749 34.2508 30.001 33.333 29.9999H13.333ZM6.66634 36.6666C5.74967 36.6666 4.96523 36.3405 4.31301 35.6883C3.66079 35.036 3.33412 34.251 3.33301 33.3333V9.99992H6.66634V33.3333H29.9997V36.6666H6.66634Z" fill="black"/>
</svg>
